<?xml version="1.0" encoding="UTF-8"?><svg id="b" xmlns="http://www.w3.org/2000/svg" width="150" height="110.4063" viewBox="0 0 150 110.4063"><defs><style>.e,.f,.g{stroke-width:0px;}.e,.g{fill:#00adef;}.f{fill:#fff;}.g{fill-rule:evenodd;}</style></defs><g id="c"><path class="g" d="m149.9998,6.2086c-.0099-3.5426-1.8658-6.2086-3.9796-6.2086H22.1883c-7.2315,0-7.6483,7.0238-8.2272,10.2742L.077,102.9775c-.5095,4.3117,1.5812,7.4288,4.0954,7.4288h122.4986c6.6096,0,8.2504-3.1991,9.5174-11.3098l13.6988-91.3396c.0794-.5281.1158-1.051.1125-1.5483"/><path class="f" d="m73.7423,105.147c-6.9848-.0005-13.8023-.0664-20.6186.0497-1.4951.0255-1.8932-.6966-1.8772-2.9512.0705-9.9577-.0075-19.9178.0575-29.8756.0148-2.2725-.3123-3.2359-1.9281-3.1305-3.9071.2549-3.3914-.7524-3.4113,5.2301-.0308,9.2658-.0516,18.5329.0205,27.7976.0178,2.2935-.4474,2.9506-1.9127,2.9266-6.7046-.1098-13.4107-.1024-20.1155-.0051-1.4156.0205-1.8028-.7408-1.8009-2.8429.0295-31.3487.0121-62.6974.0359-94.0461.0007-.9308.3157-2.6517.5057-2.6591,1.0001-.0386,2.22-.1134,2.9664.6998,1.4457,1.575,2.6346,3.7211,3.9151,5.6541,5.043,7.6133,10.1086,15.192,15.086,22.9072.666,1.0323,1.0683,2.7183,1.2411,4.2001.1689,1.448.3655,2.215,1.4025,2.1399,1.2174-.0882,2.4394-.0207,3.926-.0207-.6408-4.9932,1.854-6.9487,3.5748-9.5829,5.3663-8.215,10.7594-16.3895,16.2204-24.4525.6758-.9978,1.7925-1.4771,2.7585-1.7668,2.935-.8802,5.0614,1.0042,7.1411,4.3362,5.3138,8.5135,10.8851,16.6421,16.3793,24.8831.8739,1.3109,1.6336,2.5618,1.4742,4.6476-.1097,1.4358.4049,2.0259,1.3162,1.9439.6125-.0551,1.237-.1029,1.8419.0172,1.5534.3083,2.2623-.5224,2.1855-3.1042-.0257-.863.4181-1.9605.854-2.6254,6.3309-9.6591,12.6648-19.3152,19.1027-28.8015.6669-.9827,1.9945-.9447,3.0337-1.21.1769-.0451.5751.731.6435,1.2063.1192.8295.0757,1.7202.0758,2.5852.0006,30.6559-.0007,61.3119-.0046,91.9678q-.0005,3.8736-2.4374,3.8805c-6.4818.003-12.9642-.0687-19.4451.052-1.5037.028-1.9179-.7694-1.9067-2.9734.0505-9.8716-.0263-19.7451.0494-29.6159.0198-2.5753-.4523-3.5145-2.18-3.3716-3.3542.2773-3.1439-.7336-3.1523,4.9198-.0138,9.266-.0488,18.5329.0244,27.7976.0194,2.4497-.4331,3.2757-2.076,3.2483-7.5986-.1268-15.1985-.0557-22.9656-.0555Z"/><rect class="e" x="70" width="10" height="110.4063"/><path id="d" class="g" d="m92.3593,34.877h-6.7693l.0131,16.3237h-11.6306v9.8833h11.6132l.0044,16.4452h6.7823v-16.4452h11.6001v-9.8833h-11.6131v-16.3237Z"/></g></svg>