<?xml version="1.0" encoding="UTF-8"?><svg id="b" xmlns="http://www.w3.org/2000/svg" width="512.0007" height="512.0007" viewBox="0 0 512.0007 512.0007"><defs><style>.p{fill:#fffffe;}.p,.q{fill-rule:evenodd;stroke-width:0px;}.q{fill:#009ee3;}</style></defs><g id="c" image-rendering="optimizeQuality" shape-rendering="geometricPrecision" text-rendering="geometricPrecision"><g id="d"><path class="q" d="m125.0004,0h262c68.7502,0,125.0004,56.2498,125.0004,125.0004v262c0,68.7502-56.2498,125.0004-125.0004,125.0004H125.0004c-68.7502,0-125.0004-56.2498-125.0004-125.0004V125.0004C0,56.2501,56.2498,0,125.0004,0Z"/><g id="e"><path id="f" class="p" d="m209.9619,284.512c2.5482-6.0815,6.6889-12.7335,12.4409-21.9727,4.0972-6.5811,9.1961-14.7718,15.1512-25.0875,4.4283-7.6692,14.8837-9.9529,23.3055-5.0906l16.795,9.6965c-5.6891,9.9889-12.1784,22.1826-14.6333,28.2609-1.8381,4.5499-6.1423,15.2061.3343,18.9449,1.0707.6186,2.1567.8873,3.2398.8873,5.4647,0,10.8124-6.8427,13.3367-10.0707,4.0358-5.1667,11.3876-16.8614,17.1942-26.7803l18.0089,10.3976c3.9889,2.3014,6.9588,5.881,8.364,10.0781,1.4631,4.3718,1.0653,8.866-1.1197,12.6493-5.9537,10.3137-10.4977,18.8241-14.1482,25.6636l-1.4693,2.7499-20.2453-5.8772c-3.7474-1.0878-7.7927-.2844-10.8401,2.1535l-19.2086,15.3662-46.506-41.9688h0Zm74.6191-38.4549l5.6185,3.2439c-11.4653,19.5709-19.754,30.0293-22.2231,31.9592.4358-3.1028,5.3879-15.4878,16.6046-35.2031h0Z"/><path id="g" class="p" d="m264.8515,234.6655l4.3273-7.4953c2.335-4.0441,7.5236-5.4354,11.5674-3.0995l31.6299,18.2607c4.0429,2.335,5.4331,7.5239,3.1007,11.5674l-4.3291,7.4959c-25.8818-14.9427-21.3029-12.2994-46.2963-26.7293h0Z"/><path id="h" class="p" d="m300.3625,241.0165c.3602,0,.6895-.1887.8702-.502l63.158-109.3906c.155-.2681.1769-.5923.0597-.879-.1169-.2861-.3585-.5011-.6561-.5835-2.0967-.5811-4.1147-1.4321-5.9988-2.5193-1.8842-1.0869-3.6292-2.4089-5.1806-3.934-.2188-.215-.5265-.3192-.8309-.2776-.308.0425-.5796.2212-.7352.491l-63.1577,109.3913c-.132.2285-.1689.5017-.1004.7568.0688.2566.2356.4757.4656.6086l11.6111,6.7039c.1518.0877.3195.1346.4952.1346v-.0004Z"/><path id="i" class="p" d="m370.5903,138.5769c-5.912,0-11.6776-1.5529-16.7971-4.5086-16.0689-9.2779-21.6095-29.9604-12.3343-46.0302,1.929-3.3422,6.2179-4.4917,9.5599-2.563,3.3425,1.9293,4.4911,6.22,2.5612,9.5616-5.423,9.391-2.1791,21.4869,7.2118,26.9082,9.3918,5.4216,21.4875,2.1839,26.9091-7.2095,1.9293-3.3422,6.2185-4.4923,9.5607-2.5621,3.3419,1.9299,4.4903,6.2191,2.5606,9.561-6.0411,10.4622-17.1907,16.8425-29.232,16.8425h0Z"/><path id="j" class="p" d="m400.9436,122.5029c2.3911,0,4.6326-1.2803,5.8291-3.3529,1.8469-3.1987.7426-7.322-2.4561-9.1689l-54.9243-31.71c-1.0134-.5849-2.17-.895-3.3399-.895-2.3897,0-4.6335,1.2803-5.8296,3.3523-1.8461,3.1984-.7403,7.3222,2.4579,9.1686l54.924,31.7112c1.0134.5852,2.1688.8947,3.339.8947h0Z"/><path id="k" class="p" d="m68.1751,403.2154c-1.4226-1.6896-1.2074-4.2127.4822-5.6356l129.0654-108.6856c1.5275-1.2865,3.7722-1.2467,5.2553.0904l53.1786,47.9903,24.518-19.6137c1.0154-.8132,2.3652-1.0822,3.6124-.7175l40.9689,11.8931,51.8425-15.9499c1.6267-.504,3.4004.0856,4.4052,1.4631l62.4946,85.5908c1.3019,1.7838.9124,4.2856-.8716,5.5887-.1727.1258-22.3459.1707-55.7799.1432l-7.8863-35.4889c-.406-1.8298-2.0285-3.1314-3.9035-3.1314h-24.869l-23.6099-11.8052c-1.14-.5705-2.4859-.5613-3.6201.0221l-43.7427,22.5349-66.7123-8.0058c-.848-.1039-1.7091.0721-2.4526.4949l-60.6742,34.5003c-47.3076-.3405-81.2738-.7713-81.7006-1.2779l-.0003-.0003Zm310.9765,2.149c-58.5343-.0653-146.0026-.3304-213.2882-.7624l47.4948-27.0065,66.6219,7.9952c.799.0948,1.5974-.049,2.3088-.4146l43.0285-22.1663,22.6374,11.3185c.556.2773,1.1684.422,1.7894.422h22.6043l6.8032,30.6142h0Z"/><path id="l" class="p" d="m443.9607,434.6239H68.0393c-3.8646,0-6.9989-3.1344-6.9989-6.9989s3.1344-6.9989,6.9989-6.9989h375.9213c3.8646,0,6.9989,3.1344,6.9989,6.9989s-3.1338,6.9989-6.9989,6.9989Z"/><path id="m" class="p" d="m82.5788,339.8711l29.0235,4.8795,21.7148-15.324-34.7333-18.7305-16.005,29.175Z"/><path id="n" class="p" d="m143.5434,271.1387l1.1055,36.4868,18.7965-13.269-19.902-23.2178Z"/><path id="o" class="p" d="m91.5803,255.0512l26.3215,22.562,31.2765-28.5579c.5525-.5049,1.2165-.8725,1.9376-1.0745l26.759-7.4926-36.7063-22.2461-18.2867,18.2867c-1.2452,1.2449-3.0726,1.7052-4.7601,1.2l-24.3047-7.2921-2.2367,24.6145h0Z"/></g></g></g></svg>