<?xml version="1.0" encoding="UTF-8"?><svg id="b" xmlns="http://www.w3.org/2000/svg" width="512" height="452.5" viewBox="0 0 512 452.5"><defs><style>.d{fill:#94e368;}.d,.e,.f,.g,.h,.i,.j,.k{stroke-width:0px;}.e{fill:#5c2bc8;}.g{fill:#28abfa;}.h{fill:#14cfff;}.i{fill:#3b88f5;}.j{fill:#61ce5a;}.k{fill:#6241ea;}</style></defs><g id="c"><path class="e" d="m308.83,112.5c0-8.28-6.71-15-15-15h-30l-.01,182.5h30c8.29,0,15-6.72,15-15v-15l-29.99-61.24,30-61.26v-15Z"/><path class="k" d="m278.83,112.5c0-8.28-6.71-15-15-15h-45.66c-8.29,0-15,6.72-15,15v15l29.98,61.246-30,61.254v15c0,8.28,6.72,15,15,15h45.67c8.29,0,15-6.72,15-15l.01-137.5c-.001.002,0-15,0-15Z"/><path class="j" d="m308.83,127.5l-.01,122.5h-30l-29.995-61.24,30.005-61.26h30Z"/><path class="d" d="m278.83,127.5l-.01,122.5h-75.67l.02-122.5h75.66Z"/><path class="i" d="m143.167,127.5h-30l30,152.5c0,8.28,6.71,14.5,15,14.5,8.28,0,15-6.22,15-14.5v-122.5c0-16.5-13.5-30-30-30Z"/><path class="h" d="m37.5,127.5h30l-30,152c0,8.28-6.72,15-15,15s-15-6.72-15-15v-122c0-16.5,13.5-30,30-30Z"/><path class="g" d="m143.167,157.5c0-16.5-13.5-30-30-30h-45.667c-16.5,0-30,13.5-30,30v268.084c0,10.447,8.469,18.916,18.917,18.916s18.917-8.469,18.917-18.916v-145.584h30v145.584c0,10.447,8.469,18.916,18.917,18.916s18.916-8.469,18.916-18.916V157.5Z"/><path class="i" d="m90.004,7.5v90c24.853,0,45-20.147,45-45S114.857,7.5,90.004,7.5Z"/><path class="g" d="m105.004,52.5c0-24.853-6.716-45-15-45-24.853,0-45,20.147-45,45s20.147,45,45,45c8.285,0,15-20.147,15-45Z"/><path class="i" d="m474.5,128h-30l30,152.5c0,8.28,6.71,14.5,15,14.5,8.28,0,15-6.22,15-14.5v-122.5c0-16.5-13.5-30-30-30Z"/><path class="h" d="m368.833,128h30l-30,152c0,8.28-6.72,15-15,15s-15-6.72-15-15v-122c0-16.5,13.5-30,30-30Z"/><path class="g" d="m474.5,158c0-16.5-13.5-30-30-30h-45.667c-16.5,0-30,13.5-30,30v268.084c0,10.447,8.469,18.916,18.917,18.916s18.917-8.469,18.917-18.916v-145.584h30v145.584c0,10.447,8.469,18.916,18.917,18.916s18.916-8.469,18.916-18.916V158Z"/><path class="i" d="m421.338,8v90c24.853,0,45-20.147,45-45s-20.148-45-45-45Z"/><path class="g" d="m436.338,53c0-24.853-6.716-45-15-45-24.853,0-45,20.147-45,45s20.147,45,45,45c8.284,0,15-20.147,15-45Z"/><path class="f" d="m143.167,120H37.5c-20.678,0-37.5,16.822-37.5,37.5v122c0,12.406,10.093,22.5,22.5,22.5,2.629,0,5.153-.458,7.5-1.29v124.874c0,14.565,11.851,26.416,26.417,26.416s26.417-11.851,26.417-26.416v-138.084h15v138.084c0,14.565,11.851,26.416,26.417,26.416s26.417-11.851,26.417-26.416v-124.797c2.337.784,4.858,1.213,7.5,1.213,12.617,0,22.5-9.663,22.5-22v-122.5c-.001-20.678-16.824-37.5-37.501-37.5h0Zm22.5,160c0,3.99-3.224,7-7.5,7s-7.5-3.01-7.5-7v-122.5c0-4.143-3.358-7.5-7.5-7.5s-7.5,3.357-7.5,7.5v268.084c0,6.295-5.122,11.416-11.417,11.416s-11.417-5.121-11.417-11.416v-145.584c0-4.143-3.358-7.5-7.5-7.5h-30c-4.142,0-7.5,3.357-7.5,7.5v145.584c0,6.295-5.122,11.416-11.417,11.416s-11.416-5.121-11.416-11.416V157.5c0-4.143-3.358-7.5-7.5-7.5s-7.5,3.357-7.5,7.5v122c0,4.136-3.364,7.5-7.5,7.5s-7.5-3.364-7.5-7.5v-122c0-12.406,10.093-22.5,22.5-22.5h105.667c12.407,0,22.5,10.094,22.5,22.5v122.5Z"/><path class="f" d="m90.004,105c28.949,0,52.5-23.552,52.5-52.5S118.953,0,90.004,0s-52.5,23.552-52.5,52.5,23.552,52.5,52.5,52.5Zm0-90c20.678,0,37.5,16.822,37.5,37.5s-16.822,37.5-37.5,37.5-37.5-16.822-37.5-37.5S69.327,15,90.004,15Z"/><path class="f" d="m474.5,120.5h-105.667c-20.678,0-37.5,16.822-37.5,37.5v122c0,12.406,10.093,22.5,22.5,22.5,2.629,0,5.153-.458,7.5-1.29v124.874c0,14.565,11.851,26.416,26.417,26.416s26.417-11.851,26.417-26.416v-138.084h15v138.084c0,14.565,11.851,26.416,26.417,26.416s26.416-11.851,26.416-26.416v-124.797c2.337.784,4.858,1.213,7.5,1.213,12.617,0,22.5-9.663,22.5-22v-122.5c0-20.678-16.822-37.5-37.5-37.5Zm22.5,160c0,3.99-3.224,7-7.5,7s-7.5-3.01-7.5-7v-122.5c0-4.143-3.358-7.5-7.5-7.5s-7.5,3.357-7.5,7.5v268.084c0,6.295-5.122,11.416-11.417,11.416s-11.417-5.121-11.417-11.416v-145.584c0-4.143-3.358-7.5-7.5-7.5h-30c-4.142,0-7.5,3.357-7.5,7.5v145.584c0,6.295-5.122,11.416-11.417,11.416s-11.417-5.121-11.417-11.416v-223.084c0-4.143-3.358-7.5-7.5-7.5s-7.5,3.357-7.5,7.5v77c0,4.136-3.365,7.5-7.5,7.5s-7.5-3.364-7.5-7.5v-122c0-12.406,10.093-22.5,22.5-22.5h105.668c12.407,0,22.5,10.094,22.5,22.5v122.5Z"/><path class="f" d="m368.833,150.5c-4.142,0-7.5,3.357-7.5,7.5v15c0,4.143,3.358,7.5,7.5,7.5s7.5-3.357,7.5-7.5v-15c0-4.143-3.357-7.5-7.5-7.5Z"/><path class="f" d="m421.338,105.5c28.949,0,52.5-23.552,52.5-52.5S450.287.5,421.338.5s-52.5,23.552-52.5,52.5,23.551,52.5,52.5,52.5Zm0-90c20.678,0,37.5,16.822,37.5,37.5s-16.822,37.5-37.5,37.5-37.5-16.822-37.5-37.5,16.822-37.5,37.5-37.5Z"/><path class="f" d="m293.833,90h-75.667c-12.407,0-22.5,10.094-22.5,22.499l-.011,137.476c0,.05-.001,15.025-.001,15.025,0,12.406,10.093,22.5,22.5,22.5h75.667c12.407,0,22.5-10.094,22.5-22.499l.011-137.476c0-.049.001-15.025.001-15.025,0-12.406-10.093-22.5-22.5-22.5h0Zm-83.168,45h90.667l-.009,107.5h-90.667l.009-107.5Zm7.502-30h75.667c4.136,0,7.5,3.364,7.5,7.499l-.001,7.501h-90.667l.001-7.5c0-4.136,3.364-7.5,7.5-7.5h0Zm75.654,167.5h-75.667c-4.136,0-7.5-3.364-7.5-7.499l.001-7.501h90.667l-.001,7.5c0,4.136-3.364,7.5-7.5,7.5Z"/></g></svg>