<?xml version="1.0" encoding="UTF-8"?><svg id="b" xmlns="http://www.w3.org/2000/svg" width="232.4677" height="110.4063" viewBox="0 0 232.4677 110.4063"><defs><style>.e,.f,.g{stroke-width:0px;}.e,.g{fill:#00adef;}.f{fill:#fff;}.g{fill-rule:evenodd;}</style></defs><g id="c"><path class="g" d="m232.4673,6.2086c-.0154-3.5426-2.8915-6.2086-6.1676-6.2086H34.3871c-11.2072,0-11.8532,7.0238-12.7504,10.2742L.1194,102.9775c-.7896,4.3117,2.4506,7.4288,6.347,7.4288h189.8465c10.2434,0,12.7863-3.1991,14.7499-11.3098L232.293,7.7569c.123-.5281.1794-1.051.1743-1.5483"/><path class="f" d="m114.2847,105.147c-10.8249-.0005-21.3906-.0664-31.9544.0497-2.3171.0255-2.934-.6966-2.9092-2.9512.1093-9.9577-.0117-19.9178.0892-29.8756.023-2.2725-.4841-3.2359-2.9882-3.1305-6.0551.2549-5.2559-.7524-5.2868,5.2301-.0478,9.2658-.0799,18.5329.0317,27.7976.0276,2.2935-.6934,2.9506-2.9642,2.9266-10.3907-.1098-20.7837-.1024-31.1746-.0051-2.1938.0205-2.794-.7408-2.791-2.8429.0457-31.3487.0188-62.6974.0556-94.0461.0011-.9308.4892-2.6517.7837-2.6591,1.5499-.0386,3.4405-.1134,4.5973.6998,2.2405,1.575,4.0831,3.7211,6.0676,5.6541,7.8156,7.6133,15.6662,15.192,23.38,22.9072,1.0322,1.0323,1.6556,2.7183,1.9235,4.2001.2617,1.448.5664,2.215,2.1736,2.1399,1.8866-.0882,3.7806-.0207,6.0844-.0207-.9931-4.9932,2.8733-6.9487,5.5401-9.5829,8.3167-8.215,16.6748-16.3895,25.1381-24.4525,1.0473-.9978,2.7779-1.4771,4.2751-1.7668,4.5486-.8802,7.844,1.0042,11.0672,4.3362,8.2353,8.5135,16.8695,16.6421,25.3843,24.8831,1.3544,1.3109,2.5317,2.5618,2.2848,4.6476-.17,1.4358.6275,2.0259,2.0398,1.9439.9492-.0551,1.917-.1029,2.8546.0172,2.4074.3083,3.506-.5224,3.387-3.1042-.0398-.863.648-1.9605,1.3235-2.6254,9.8115-9.6591,19.6278-19.3152,29.605-28.8015,1.0336-.9827,3.0911-.9447,4.7016-1.21.2741-.0451.8914.731.9972,1.2063.1847.8295.1174,1.7202.1174,2.5852.001,30.6559-.001,61.3119-.0071,91.9678-.0008,3.8736-.0122,3.8793-3.7775,3.8805-10.0455.003-20.0917-.0687-30.1357.052-2.3304.028-2.9724-.7694-2.9549-2.9734.0782-9.8716-.0408-19.7451.0766-29.6159.0306-2.5753-.701-3.5145-3.3785-3.3716-5.1983.2773-4.8724-.7336-4.8854,4.9198-.0215,9.266-.0756,18.5329.0378,27.7976.03,2.4497-.6712,3.2757-3.2173,3.2483-11.7761-.1268-23.5544-.0557-35.5917-.0555Z"/><rect class="e" x="112.2338" width="8" height="110.4063"/><path id="d" class="g" d="m141.8742,39.0075h-7.9671l.0154,12.3967h-13.6887v7.5057h13.6681l.0051,12.489h7.9824v-12.489h13.6528v-7.5057h-13.6681v-12.3967Z"/></g></svg>