<?xml version="1.0" encoding="utf-8"?>
<!-- Generator: Adobe Illustrator 28.0.0, SVG Export Plug-In . SVG Version: 6.00 Build 0)  -->
<svg version="1.1" id="b" xmlns="http://www.w3.org/2000/svg" xmlns:xlink="http://www.w3.org/1999/xlink" x="0px" y="0px"
	 viewBox="0 0 250 243.7" style="enable-background:new 0 0 250 243.7;" xml:space="preserve">
<style type="text/css">
	.st0{fill:#71D4FF;}
	.st1{fill:#2BBEFF;}
</style>
<g id="c">
	<path class="st0" d="M206.7,62.8c-1.4,0-2.5,1.1-2.5,2.5v1.2c0,1.4,1.1,2.5,2.5,2.5s2.5-1.1,2.5-2.5v-1.2
		C209.2,64,208.1,62.8,206.7,62.8z M217.9,22.4c-2.8-3-6.9-4.8-11.2-4.8c-7.4,0-13.7,5.5-14.7,12.9c-0.2,1.4,0.8,2.6,2.1,2.8
		c1.4,0.2,2.6-0.8,2.8-2.1c0.6-4.9,4.8-8.5,9.7-8.5c2.9,0,5.7,1.1,7.5,3.1c2.2,2.4,2.8,6.2,1.5,9.5c-0.7,1.9-2.7,3.9-4.6,5.9
		c-0.8,0.8-1.5,1.5-2.1,2.3c-2.4,2.8-4.9,6.4-4.9,12.3c0,1.4,1.1,2.5,2.5,2.5s2.5-1.1,2.5-2.5c0-4,1.5-6.5,3.6-9
		c0.6-0.7,1.3-1.4,2-2.1c2.1-2.2,4.5-4.7,5.6-7.6C222.4,32,221.4,26.2,217.9,22.4L217.9,22.4L217.9,22.4z M217.9,22.4
		c-2.8-3-6.9-4.8-11.2-4.8c-7.4,0-13.7,5.5-14.7,12.9c-0.2,1.4,0.8,2.6,2.1,2.8c1.4,0.2,2.6-0.8,2.8-2.1c0.6-4.9,4.8-8.5,9.7-8.5
		c2.9,0,5.7,1.1,7.5,3.1c2.2,2.4,2.8,6.2,1.5,9.5c-0.7,1.9-2.7,3.9-4.6,5.9c-0.8,0.8-1.5,1.5-2.1,2.3c-2.4,2.8-4.9,6.4-4.9,12.3
		c0,1.4,1.1,2.5,2.5,2.5s2.5-1.1,2.5-2.5c0-4,1.5-6.5,3.6-9c0.6-0.7,1.3-1.4,2-2.1c2.1-2.2,4.5-4.7,5.6-7.6
		C222.4,32,221.4,26.2,217.9,22.4L217.9,22.4L217.9,22.4z M206.7,62.8c-1.4,0-2.5,1.1-2.5,2.5v1.2c0,1.4,1.1,2.5,2.5,2.5
		s2.5-1.1,2.5-2.5v-1.2C209.2,64,208.1,62.8,206.7,62.8z M206.7,62.8c-1.4,0-2.5,1.1-2.5,2.5v1.2c0,1.4,1.1,2.5,2.5,2.5
		s2.5-1.1,2.5-2.5v-1.2C209.2,64,208.1,62.8,206.7,62.8z M217.9,22.4c-2.8-3-6.9-4.8-11.2-4.8c-7.4,0-13.7,5.5-14.7,12.9
		c-0.2,1.4,0.8,2.6,2.1,2.8c1.4,0.2,2.6-0.8,2.8-2.1c0.6-4.9,4.8-8.5,9.7-8.5c2.9,0,5.7,1.1,7.5,3.1c2.2,2.4,2.8,6.2,1.5,9.5
		c-0.7,1.9-2.7,3.9-4.6,5.9c-0.8,0.8-1.5,1.5-2.1,2.3c-2.4,2.8-4.9,6.4-4.9,12.3c0,1.4,1.1,2.5,2.5,2.5s2.5-1.1,2.5-2.5
		c0-4,1.5-6.5,3.6-9c0.6-0.7,1.3-1.4,2-2.1c2.1-2.2,4.5-4.7,5.6-7.6C222.4,32,221.4,26.2,217.9,22.4L217.9,22.4L217.9,22.4z
		 M217.9,22.4c-2.8-3-6.9-4.8-11.2-4.8c-7.4,0-13.7,5.5-14.7,12.9c-0.2,1.4,0.8,2.6,2.1,2.8c1.4,0.2,2.6-0.8,2.8-2.1
		c0.6-4.9,4.8-8.5,9.7-8.5c2.9,0,5.7,1.1,7.5,3.1c2.2,2.4,2.8,6.2,1.5,9.5c-0.7,1.9-2.7,3.9-4.6,5.9c-0.8,0.8-1.5,1.5-2.1,2.3
		c-2.4,2.8-4.9,6.4-4.9,12.3c0,1.4,1.1,2.5,2.5,2.5s2.5-1.1,2.5-2.5c0-4,1.5-6.5,3.6-9c0.6-0.7,1.3-1.4,2-2.1
		c2.1-2.2,4.5-4.7,5.6-7.6C222.4,32,221.4,26.2,217.9,22.4L217.9,22.4L217.9,22.4z M206.7,62.8c-1.4,0-2.5,1.1-2.5,2.5v1.2
		c0,1.4,1.1,2.5,2.5,2.5s2.5-1.1,2.5-2.5v-1.2C209.2,64,208.1,62.8,206.7,62.8z M237.3,73.9c8.2-8.2,12.7-19,12.7-30.6
		s-4.5-22.4-12.7-30.6C229.1,4.5,218.3,0,206.7,0s-22.4,4.5-30.6,12.7c-1.5,1.5-2.9,3.1-4.2,4.8c-16.3-8-34.4-12.2-52.7-12.2
		c-31.8,0-61.8,12.4-84.3,34.9C12.4,62.7,0,92.7,0,124.5s12.4,61.8,34.9,84.3s52.5,34.9,84.3,34.9s61.8-12.4,84.3-34.9
		c22.5-22.5,34.9-52.5,34.9-84.3c0-15.4-2.9-30.4-8.6-44.6C232.5,78.2,235,76.2,237.3,73.9L237.3,73.9z M179.6,16.2
		C186.9,9,196.5,5,206.7,5s19.9,4,27.1,11.2C241,23.5,245,33.1,245,43.3s-4,19.8-11.2,27.1c-7.2,7.2-16.9,11.2-27.1,11.2
		s-19.8-4-27.1-11.2c-7.2-7.2-11.2-16.8-11.2-27.1S172.4,23.5,179.6,16.2L179.6,16.2L179.6,16.2z M122.8,193.7h-7.2l-5.7-8.1
		l9.2-6.2l9.2,6.2C128.5,185.6,122.8,193.7,122.8,193.7z M126.5,224.3c-2.4,0.2-4.8,0.3-7.2,0.3s-4.8-0.1-7.2-0.3l4.5-25.6h5.6
		L126.5,224.3z M82,101.1c-6.6-8.4-7.8-20.3-3.6-33.9c11.8,1.9,21.1-2.9,29.3-7c12.2-6.2,20.3-10.3,32.3,6.8c0.6,0.8,1.5,1.2,2.4,1
		c1.3-0.2,7.9-0.9,12.5,4.1c4.8,5.3,5.6,15.4,2.2,29.3c-0.1,0-0.2,0-0.3,0c-3.8-1.4-6.7-5.6-8.2-9.2c-1.2-3-3.1-6.8-6.4-8.8
		c-1.9-1.2-3.6-1.6-5.1-1.6c-3.4,0-5.7,2.4-7.1,3.9c-10.6,10.9-15.3,11.1-23.9,11.5C100.3,97.3,93.1,97.6,82,101.1L82,101.1
		L82,101.1z M83.1,115.8c-1.6-0.1-3.1-0.7-4.2-1.8c-1-1.1-1.7-2.4-1.7-3.7c0-2,1.5-3.4,4.1-3.8C81.7,109.6,82.3,112.7,83.1,115.8z
		 M159.9,107.7c0.8,0.7,1.2,1.6,1.2,2.6c0,2.3-2,5.4-5.8,5.6c0.8-3.1,1.4-6.2,1.7-9.2c0.5,0.1,0.9,0.2,1.4,0.2
		C159,107,159.5,107.3,159.9,107.7L159.9,107.7L159.9,107.7z M106.3,102c9.2-0.4,15.3-0.7,27.2-13c2.5-2.6,3.5-3,6-1.5
		c2.1,1.3,3.4,4.1,4.4,6.5c1.6,3.9,4.4,8.1,8.2,10.6c-1.4,19.2-13.2,39.6-32.9,41C99.6,144.2,87.9,124,86.3,105
		C95.2,102.5,101.3,102.3,106.3,102z M106.2,148.8v-1.7c3.9,1.9,8.2,3.1,12.9,3.4c0.1,0,0.1,0,0.2,0c0.1,0,0.1,0,0.2,0
		c4.7-0.3,9-1.5,12.9-3.5v1.7c0,4,1.3,7.5,4,10.4l-17,14l-17-14C104.9,156.3,106.2,152.8,106.2,148.8
		C106.2,148.8,106.2,148.8,106.2,148.8z M142.6,160.5l8.3,4.5l-12.7,21.2l-4.8-3.2l-9.9-6.6L142.6,160.5z M115,176.2l-14.8,9.9
		l-12.7-21.2l8.3-4.5L115,176.2z M97.3,190.9c0.4,0.6,0.9,1,1.6,1.1c0.2,0,0.4,0.1,0.6,0.1c0.5,0,1-0.1,1.4-0.4l5-3.3l5.9,8.4
		l-4.7,27c-25.3-3.1-47.7-15.7-63.6-34c1.5-4.4,3.9-7.1,8.9-10c6.6-3.9,15.1-6.2,23.3-8.5c2.9-0.8,5.7-1.6,8.4-2.4L97.3,190.9
		L97.3,190.9z M132.6,188.4l5,3.3c0.4,0.3,0.9,0.4,1.4,0.4c0.2,0,0.4,0,0.6-0.1c0.7-0.1,1.2-0.6,1.6-1.1l13.3-22.1
		c2.7,0.8,5.5,1.6,8.4,2.4c8.2,2.3,16.8,4.7,23.3,8.5c5,2.9,7.4,5.6,8.9,10c-15.9,18.4-38.3,30.9-63.6,34l-4.7-27L132.6,188.4
		L132.6,188.4z M188.7,175.5c-7.1-4.2-16-6.6-24.5-9c-2.5-0.7-5-1.4-7.3-2.1c0.1-0.3,0-0.7-0.1-1c-0.2-0.7-0.6-1.2-1.2-1.5
		l-12.1-6.5c-0.9-0.5-2-0.4-2.8,0.3l-0.6,0.5c-1.9-2.1-2.8-4.4-2.8-7.2v-4.8c7.6-5.5,13.2-13.9,16.5-23.2h1.2c3.1,0,6-1.2,8.1-3.3
		c2-2,3.1-4.6,3.1-7.3c0-2.7-1.2-5.6-4.3-7.4c3.9-15.9,2.8-27.4-3.3-34.1c-4.4-4.8-10.6-6.2-15.4-5.9C129,43.6,117,49.8,105.4,55.7
		c-8.3,4.3-17,8.7-28.1,6.2c-1.2-0.3-2.5,0.4-2.9,1.6c-6.9,19.6-2.2,32.3,2.6,39.2c-0.6,0.3-1.2,0.7-1.7,1.1c-1.9,1.6-3,3.9-3,6.4
		c0,5.1,4.5,10.6,11.2,10.6h1.2c3.3,9.3,8.9,17.7,16.5,23.2v4.8c0,2.8-0.9,5.2-2.8,7.2l-0.6-0.5c-0.8-0.6-1.9-0.8-2.8-0.3l-12.1,6.5
		c-0.6,0.3-1,0.9-1.2,1.5c-0.1,0.3-0.1,0.7-0.1,1c-2.3,0.7-4.8,1.4-7.3,2.1c-8.5,2.4-17.4,4.9-24.5,9c-4.9,2.9-8,5.9-9.9,9.9
		c-13-16.9-20.7-38-20.7-60.9C19.1,69.3,64,24.4,119.2,24.4c15.6,0,31.1,3.7,45,10.7c-0.5,2.7-0.8,5.4-0.8,8.2
		c0,11.6,4.5,22.4,12.7,30.6c8.2,8.2,19.1,12.7,30.6,12.7c1.7,0,3.4-0.1,5.1-0.3c5,12.1,7.6,25,7.6,38.2c0,22.9-7.7,44-20.7,60.9
		C196.6,181.4,193.6,178.4,188.7,175.5L188.7,175.5L188.7,175.5z M233.4,124.5c0,63-51.2,114.2-114.2,114.2S5,187.5,5,124.5
		S56.2,10.3,119.2,10.3c17.5,0,34.3,3.9,49.9,11.5c-1.5,2.6-2.8,5.4-3.7,8.4c-14.3-7-30.2-10.7-46.2-10.7
		c-58,0-105.1,47.1-105.1,105.1s47.1,105.1,105.1,105.1s105.1-47.1,105.1-105.1c0-13.5-2.5-26.7-7.5-39.1c3-0.7,5.9-1.7,8.6-3.1
		C230.7,95.8,233.4,109.9,233.4,124.5L233.4,124.5L233.4,124.5z M194.2,33.3c1.4,0.2,2.6-0.8,2.8-2.1c0.6-4.9,4.8-8.5,9.7-8.5
		c2.9,0,5.7,1.1,7.5,3.1c2.2,2.4,2.8,6.2,1.5,9.5c-0.7,1.9-2.7,3.9-4.6,5.9c-0.8,0.8-1.5,1.5-2.1,2.3c-2.4,2.8-4.9,6.4-4.9,12.3
		c0,1.4,1.1,2.5,2.5,2.5s2.5-1.1,2.5-2.5c0-4,1.5-6.5,3.6-9c0.6-0.7,1.3-1.4,2-2.1c2.1-2.2,4.5-4.7,5.6-7.6c2-5.1,1-10.9-2.5-14.7
		c-2.8-3-6.9-4.8-11.2-4.8c-7.4,0-13.7,5.5-14.7,12.9C191.8,31.8,192.8,33.1,194.2,33.3L194.2,33.3L194.2,33.3z M206.7,62.8
		c-1.4,0-2.5,1.1-2.5,2.5v1.2c0,1.4,1.1,2.5,2.5,2.5s2.5-1.1,2.5-2.5v-1.2C209.2,64,208,62.8,206.7,62.8z M206.7,62.8
		c-1.4,0-2.5,1.1-2.5,2.5v1.2c0,1.4,1.1,2.5,2.5,2.5s2.5-1.1,2.5-2.5v-1.2C209.2,64,208,62.8,206.7,62.8z M217.9,22.4
		c-2.8-3-6.9-4.8-11.2-4.8c-7.4,0-13.7,5.5-14.7,12.9c-0.2,1.4,0.8,2.6,2.1,2.8c1.4,0.2,2.6-0.8,2.8-2.1c0.6-4.9,4.8-8.5,9.7-8.5
		c2.9,0,5.7,1.1,7.5,3.1c2.2,2.4,2.8,6.2,1.5,9.5c-0.7,1.9-2.7,3.9-4.6,5.9c-0.8,0.8-1.5,1.5-2.1,2.3c-2.4,2.8-4.9,6.4-4.9,12.3
		c0,1.4,1.1,2.5,2.5,2.5s2.5-1.1,2.5-2.5c0-4,1.5-6.5,3.6-9c0.6-0.7,1.3-1.4,2-2.1c2.1-2.2,4.5-4.7,5.6-7.6
		C222.4,32,221.4,26.2,217.9,22.4L217.9,22.4L217.9,22.4z M217.9,22.4c-2.8-3-6.9-4.8-11.2-4.8c-7.4,0-13.7,5.5-14.7,12.9
		c-0.2,1.4,0.8,2.6,2.1,2.8c1.4,0.2,2.6-0.8,2.8-2.1c0.6-4.9,4.8-8.5,9.7-8.5c2.9,0,5.7,1.1,7.5,3.1c2.2,2.4,2.8,6.2,1.5,9.5
		c-0.7,1.9-2.7,3.9-4.6,5.9c-0.8,0.8-1.5,1.5-2.1,2.3c-2.4,2.8-4.9,6.4-4.9,12.3c0,1.4,1.1,2.5,2.5,2.5s2.5-1.1,2.5-2.5
		c0-4,1.5-6.5,3.6-9c0.6-0.7,1.3-1.4,2-2.1c2.1-2.2,4.5-4.7,5.6-7.6C222.4,32,221.4,26.2,217.9,22.4L217.9,22.4L217.9,22.4z
		 M206.7,62.8c-1.4,0-2.5,1.1-2.5,2.5v1.2c0,1.4,1.1,2.5,2.5,2.5s2.5-1.1,2.5-2.5v-1.2C209.2,64,208,62.8,206.7,62.8z M206.7,62.8
		c-1.4,0-2.5,1.1-2.5,2.5v1.2c0,1.4,1.1,2.5,2.5,2.5s2.5-1.1,2.5-2.5v-1.2C209.2,64,208,62.8,206.7,62.8z M217.9,22.4
		c-2.8-3-6.9-4.8-11.2-4.8c-7.4,0-13.7,5.5-14.7,12.9c-0.2,1.4,0.8,2.6,2.1,2.8c1.4,0.2,2.6-0.8,2.8-2.1c0.6-4.9,4.8-8.5,9.7-8.5
		c2.9,0,5.7,1.1,7.5,3.1c2.2,2.4,2.8,6.2,1.5,9.5c-0.7,1.9-2.7,3.9-4.6,5.9c-0.8,0.8-1.5,1.5-2.1,2.3c-2.4,2.8-4.9,6.4-4.9,12.3
		c0,1.4,1.1,2.5,2.5,2.5s2.5-1.1,2.5-2.5c0-4,1.5-6.5,3.6-9c0.6-0.7,1.3-1.4,2-2.1c2.1-2.2,4.5-4.7,5.6-7.6
		C222.4,32,221.4,26.2,217.9,22.4L217.9,22.4L217.9,22.4z M206.7,62.8c-1.4,0-2.5,1.1-2.5,2.5v1.2c0,1.4,1.1,2.5,2.5,2.5
		s2.5-1.1,2.5-2.5v-1.2C209.2,64,208,62.8,206.7,62.8z M217.9,22.4c-2.8-3-6.9-4.8-11.2-4.8c-7.4,0-13.7,5.5-14.7,12.9
		c-0.2,1.4,0.8,2.6,2.1,2.8c1.4,0.2,2.6-0.8,2.8-2.1c0.6-4.9,4.8-8.5,9.7-8.5c2.9,0,5.7,1.1,7.5,3.1c2.2,2.4,2.8,6.2,1.5,9.5
		c-0.7,1.9-2.7,3.9-4.6,5.9c-0.8,0.8-1.5,1.5-2.1,2.3c-2.4,2.8-4.9,6.4-4.9,12.3c0,1.4,1.1,2.5,2.5,2.5s2.5-1.1,2.5-2.5
		c0-4,1.5-6.5,3.6-9c0.6-0.7,1.3-1.4,2-2.1c2.1-2.2,4.5-4.7,5.6-7.6C222.4,32,221.4,26.2,217.9,22.4L217.9,22.4L217.9,22.4z"/>
	<path class="st1" d="M233.8,16.2C226.6,9,216.9,5,206.7,5s-19.8,4-27.1,11.2c-7.2,7.2-11.2,16.9-11.2,27.1s4,19.8,11.2,27.1
		s16.9,11.2,27.1,11.2s19.9-4,27.1-11.2C241,63.1,245,53.5,245,43.3S241,23.5,233.8,16.2z M209.2,66.5c0,1.4-1.1,2.5-2.5,2.5
		s-2.5-1.1-2.5-2.5v-1.2c0-1.4,1.1-2.5,2.5-2.5s2.5,1.1,2.5,2.5V66.5z M220.4,37.1c-1.1,2.9-3.5,5.4-5.6,7.6c-0.7,0.7-1.4,1.5-2,2.1
		c-2.2,2.5-3.6,5-3.6,9c0,1.4-1.1,2.5-2.5,2.5s-2.5-1.1-2.5-2.5c0-5.9,2.5-9.5,4.9-12.3c0.7-0.8,1.4-1.5,2.1-2.3
		c1.9-2,3.8-4,4.6-5.9c1.3-3.3,0.7-7.1-1.5-9.5c-1.8-2-4.6-3.1-7.5-3.1c-4.9,0-9.1,3.7-9.7,8.5c-0.2,1.4-1.4,2.3-2.8,2.1
		c-1.4-0.2-2.3-1.4-2.1-2.8c1-7.3,7.3-12.9,14.7-12.9c4.3,0,8.4,1.7,11.2,4.8C221.4,26.2,222.4,32,220.4,37.1L220.4,37.1L220.4,37.1
		z"/>
	<path class="st1" d="M111.7,196.8l-4.7,27c-25.3-3.1-47.7-15.7-63.6-34c1.5-4.4,3.9-7.1,8.9-10c6.6-3.9,15.1-6.2,23.3-8.5
		c2.9-0.8,5.7-1.6,8.4-2.4l13.3,22.1c0.4,0.6,0.9,1,1.6,1.1c0.2,0,0.4,0.1,0.6,0.1c0.5,0,1-0.1,1.4-0.4l5-3.3L111.7,196.8
		L111.7,196.8z"/>
	<path class="st1" d="M195,189.8c-15.9,18.4-38.3,30.9-63.6,34l-4.7-27l5.9-8.4l5,3.3c0.4,0.3,0.9,0.4,1.4,0.4c0.2,0,0.4,0,0.6-0.1
		c0.7-0.1,1.2-0.6,1.6-1.1l13.3-22.1c2.7,0.8,5.5,1.6,8.4,2.4c8.2,2.3,16.8,4.7,23.3,8.5C191.1,182.7,193.5,185.4,195,189.8
		L195,189.8L195,189.8z"/>
	<path class="st1" d="M157.1,101.4c-0.1,0-0.2,0-0.3,0c-3.8-1.4-6.7-5.6-8.2-9.2c-1.2-3-3.1-6.8-6.4-8.8c-1.9-1.2-3.6-1.6-5.1-1.6
		c-3.4,0-5.7,2.4-7.1,3.9c-10.6,10.9-15.3,11.1-23.9,11.5c-5.8,0.3-13,0.6-24.1,4c-6.6-8.4-7.8-20.3-3.6-33.9
		c11.8,1.9,21.1-2.9,29.3-7c12.2-6.2,20.3-10.3,32.3,6.8c0.6,0.8,1.5,1.2,2.4,1c1.3-0.2,7.9-0.9,12.5,4.1
		C159.7,77.4,160.4,87.5,157.1,101.4L157.1,101.4L157.1,101.4z"/>
</g>
</svg>
