<?xml version="1.0" encoding="utf-8"?>
<!-- Generator: Adobe Illustrator 28.0.0, SVG Export Plug-In . SVG Version: 6.00 Build 0)  -->
<svg version="1.1" id="svg34493" xmlns:svg="http://www.w3.org/2000/svg"
	 xmlns="http://www.w3.org/2000/svg" xmlns:xlink="http://www.w3.org/1999/xlink" x="0px" y="0px" viewBox="0 0 1024 119"
	 style="enable-background:new 0 0 1024 119;" xml:space="preserve">
<style type="text/css">
	.st0{fill:#FFFFFF;}
	.st1{fill-rule:evenodd;clip-rule:evenodd;fill:#231F20;}
	.st2{fill:#231F20;}
	.st3{fill-rule:evenodd;clip-rule:evenodd;fill:#00ADEF;}
	.st4{filter:url(#Adobe_OpacityMaskFilter);}
	.st5{mask:url(#SVGID_1_);fill-rule:evenodd;clip-rule:evenodd;fill:#00ADEF;}
	.st6{filter:url(#Adobe_OpacityMaskFilter_00000041264666595892259870000004388532974248677807_);}
	.st7{mask:url(#SVGID_00000103225314995883156590000001074651879708812435_);fill-rule:evenodd;clip-rule:evenodd;fill:#00ADEF;}
	.st8{filter:url(#Adobe_OpacityMaskFilter_00000003071500412712538340000006346966414373149100_);}
	.st9{mask:url(#SVGID_00000075848533953602367280000013908208976827812541_);fill-rule:evenodd;clip-rule:evenodd;fill:#00ADEF;}
	.st10{filter:url(#Adobe_OpacityMaskFilter_00000102540636498167783240000007226139146587749779_);}
	.st11{mask:url(#SVGID_00000057120348032892616330000005484082597142979457_);fill-rule:evenodd;clip-rule:evenodd;fill:#00ADEF;}
	.st12{filter:url(#Adobe_OpacityMaskFilter_00000074440653440847391970000010931697629958613138_);}
	.st13{mask:url(#SVGID_00000034785153760447939500000011046889534089407656_);fill-rule:evenodd;clip-rule:evenodd;fill:#00ADEF;}
	.st14{filter:url(#Adobe_OpacityMaskFilter_00000182506098261719624300000007459256605539690677_);}
	.st15{mask:url(#SVGID_00000029726281870420025370000011269237844162762648_);fill-rule:evenodd;clip-rule:evenodd;fill:#00ADEF;}
	.st16{filter:url(#Adobe_OpacityMaskFilter_00000065074312240918854710000012399141343224399032_);}
	.st17{mask:url(#SVGID_00000120541513240470984630000007235509069734698908_);fill-rule:evenodd;clip-rule:evenodd;fill:#00ADEF;}
	.st18{filter:url(#Adobe_OpacityMaskFilter_00000001637774961825444010000000828833214732051845_);}
	.st19{mask:url(#SVGID_00000102524683927880395570000002553061122978447273_);fill-rule:evenodd;clip-rule:evenodd;fill:#00ADEF;}
	.st20{filter:url(#Adobe_OpacityMaskFilter_00000079473366853235730380000012982896820990288290_);}
	.st21{mask:url(#SVGID_00000103946700637851890140000001040317200280622990_);fill-rule:evenodd;clip-rule:evenodd;fill:#00ADEF;}
</style>
<rect id="rect34539" x="819.3" y="8.3" class="st0" width="169.3" height="102"/>
<path id="path13046" class="st1" d="M398.3,106.2V87.5H417v-9h-18.7V59.9h-9v18.7h-18.7v9h18.7v18.7H398.3z"/>
<path id="path13048" class="st2" d="M44.5,35.7H3.4V114h43v-10.2H15.8V78.6h26.2v-9.9H15.8V45.4h29v-9.7H44.5z"/>
<path id="path13050" class="st2" d="M88,54.1c-8.4,0.1-13,2.9-18.7,7.2c-0.2-1.1-0.9-6.2-0.9-6.2H57.9V114h11.6V70.4
	c0-2.2,5.7-6.5,13.6-6.5c7.4,0,8.5,4.3,8.5,8.9V114h11.6V67.2c0-3.5-1.3-6.6-3.7-9C96.6,55.5,92.6,54,88,54.1"/>
<path id="path13052" class="st2" d="M161.4,31h-11v29.2c-4.1-4.3-7.8-5.9-14.2-5.9c-14.8,0-21.5,15.7-21.5,30.3
	c0,14.7,5.5,30.5,21.1,30.5c6.1,0,10.5-2,15-6.8c0.2,1.2,0.9,5.8,0.9,5.8h10.2V31H161.4z M150.4,96.8c0,1.8-1,3.8-2.8,5.5
	c-2.5,2.4-5.9,3.9-9,3.8c-10.1-0.1-11.6-13.6-11.6-21.6c0-6.6,1.1-21.9,11.6-21.9c6.3,0,11.8,5.4,11.8,8.7V96.8"/>
<path id="path13054" class="st2" d="M204.1,53.7c-3.5,0-6.1,0.6-9.4,2.4c-3.2,1.6-5.2,3.3-7.1,6c-0.2-1.6-0.8-7-0.8-7h-10.3V114H188
	V73.1c0-2.6,2.8-4.7,5.3-5.8c3.8-1.6,6.7-1.6,10.8-1.4l0.4,0V53.7H204.1"/>
<path id="path13056" class="st2" d="M250.7,60.5c-4.1-4.5-9.6-6.7-16.4-6.7c-16,0-25.6,14.7-25.6,29c0,14.9,6.7,32.4,25.7,32.4
	c9,0,16.3-3.5,22.4-10.8l0.3-0.3l-7.2-6.1l-0.3,0.3c-4.1,4.9-9.3,7.4-15.4,7.4c-8.9,0-13.1-9.3-13.3-18.2h37l0-0.4
	c0.1-0.9,0.2-2.3,0.2-4C258.1,77.2,257,67.4,250.7,60.5 M247.1,79.5H221c0.1-8.6,4.7-17.1,13.3-17.1c3.3,0,6.1,1.2,8.3,3.4
	c2.9,3,4.5,7.8,4.5,13.1C247.1,79.1,247.1,79.3,247.1,79.5"/>
<path id="path13058" class="st2" d="M271.7,59.5c-3.2,3.1-5,7.1-5,11.5c0,10.4,8.3,13.6,15.5,16.5c5.4,2.1,9.9,4.2,11.3,7.6
	c0.7,1.7,0.6,3.6-0.4,5.9c-1.6,3.7-5.3,5.1-11.7,4.5c-4.8-0.5-8.5-2.8-11.2-4.8l-0.4-0.3l-5.2,8.3l0.3,0.2
	c6.3,5.1,11.8,6.2,19.5,6.3l0,0c6.4,0.1,12.5-2.2,16.5-6.2c3.2-3.2,4.9-7.2,4.9-11.6c0-12.2-8.4-15.7-14.5-18.3l-0.7-0.3l-2.6-1.1
	c-5.2-2-11.1-4.3-9.2-10.1c1.7-4.9,7.3-4.9,9.6-4.6c4.3,0.4,6.8,1.8,10,3.9l0.4,0.2l4.8-8l-0.3-0.2c-3.7-3.3-8.5-4.8-16-5.1
	C281.4,53.6,275.7,55.7,271.7,59.5"/>
<path id="path13060" class="st2" d="M320.1,59.5c-3.2,3.1-5,7.1-5,11.5c0,10.4,8.3,13.6,15.5,16.5c5.4,2.1,9.9,4.2,11.3,7.6
	c0.7,1.7,0.6,3.6-0.4,5.9c-1.6,3.7-5.3,5.1-11.7,4.5c-4.8-0.5-8.5-2.8-11.2-4.8l-0.4-0.3l-5.2,8.3l0.3,0.2
	c6.3,5.1,11.7,6.2,19.5,6.3h0c6.4,0.1,12.5-2.2,16.5-6.2c3.2-3.2,4.9-7.2,4.9-11.6c0-12.2-8.4-15.7-14.5-18.3l-0.7-0.3l-2.6-1
	c-5.2-2-11.1-4.3-9.2-10.1c1.6-4.9,7.3-4.9,9.6-4.6c4.3,0.4,6.8,1.8,10,3.9l0.4,0.2l4.8-8l-0.3-0.2c-3.7-3.3-8.5-4.8-16-5.1
	C329.8,53.6,324.1,55.7,320.1,59.5"/>
<path id="path13062" class="st2" d="M487,35.7h-12.1v32.8h-27V35.7h-12.5V114h12.5V78.8h26.9V114h12.6V35.7H487z"/>
<path id="path13064" class="st2" d="M526.2,53.9c-8.9,0-16.9,2.7-23.2,7.7l-0.3,0.3l5.9,7.2l0.3-0.3c4.2-3.9,9.3-5.8,15.5-5.8
	c5.6,0,8.6,2.9,8.6,8.4v6.3c-0.7,0.1-9.2,1.1-9.2,1.1c-15,1.8-23.6,9-23.6,19.7c0,8.2,5.6,17,15.9,17c7.3,0,12.5-3.3,16.9-7
	c0.2,1.1,0.8,5.6,0.8,5.6h10.6V70.1C544.3,59.7,537.9,53.9,526.2,53.9 M532.9,98.5c0,3.2-7,7.5-12.5,7.6c-2.5,0.1-4.6-0.7-6.1-2.1
	c-1.6-1.6-2.5-4.1-2.5-7.2c0-5.7,5.4-9.2,16-10.6c0,0,3.8-0.5,5.1-0.6V98.5"/>
<path id="path13066" class="st2" d="M603.6,55.1h-11.1V98c0,2.1-5.9,7.3-13.7,7.3c-7.3,0-8.3-4.6-8.3-9.5V55.1h-11.6v46.8
	c0,3.4,1.3,6.4,3.7,8.8c3,2.9,7.3,4.5,12.1,4.4c8.2-0.1,12.2-3,18-7.4c0.2,1.1,0.9,6.2,0.9,6.2H604V55.1H603.6"/>
<path id="path13068" class="st2" d="M621.5,59.5c-3.2,3.1-5,7.1-5,11.5c0,10.4,8.3,13.6,15.5,16.5c5.4,2.1,9.9,4.2,11.3,7.6
	c0.7,1.7,0.6,3.6-0.4,5.9c-1.6,3.7-5.3,5.1-11.7,4.5c-4.8-0.5-8.5-2.8-11.2-4.8l-0.4-0.3l-5.2,8.3l0.3,0.2
	c6.3,5.1,11.7,6.2,19.5,6.3h0c6.4,0.1,12.5-2.2,16.5-6.2c3.2-3.2,4.9-7.2,4.9-11.6c0-12.2-8.4-15.7-14.5-18.3l-0.7-0.3l-2.6-1.1
	c-5.2-2-11.1-4.3-9.2-10.1c1.7-4.9,7.3-4.9,9.6-4.6c4.3,0.4,6.8,1.8,10,3.9l0.4,0.2l4.8-8l-0.3-0.2c-3.7-3.3-8.5-4.8-16-5.1
	C631.2,53.6,625.4,55.7,621.5,59.5"/>
<path id="path13070" class="st2" d="M706.1,60.5c-4.1-4.5-9.6-6.7-16.4-6.7c-16,0-25.6,14.7-25.6,29c0,14.9,6.7,32.4,25.7,32.4
	c9,0,16.3-3.5,22.4-10.8l0.3-0.3l-7.2-6.1l-0.3,0.3c-4.1,4.9-9.3,7.4-15.4,7.4c-8.9,0-13.1-9.3-13.3-18.2h37l0-0.4
	c0.1-0.9,0.2-2.3,0.2-4C713.5,77.2,712.4,67.4,706.1,60.5 M702.5,79.5h-26.1c0.1-8.6,4.7-17.1,13.3-17.1c3.3,0,6.1,1.2,8.3,3.4
	c2.9,3,4.5,7.8,4.5,13.1C702.5,79.1,702.5,79.3,702.5,79.5"/>
<path id="path13072" class="st2" d="M752,53.7c-3.5,0-6.1,0.6-9.4,2.4c-3.2,1.6-5.2,3.3-7.1,6c-0.2-1.6-0.9-7-0.9-7h-10.3V114h11.6
	V73.1c0-2.6,2.8-4.7,5.3-5.8c3.8-1.6,6.7-1.6,10.8-1.4l0.4,0V53.7H752"/>
<path id="path13136" class="st3" d="M1020.6,9.8c0-3.5-2.9-6.2-6.2-6.2H822.6c-11.2,0-11.9,7-12.8,10.3l-21.5,92.7
	c-0.8,4.3,2.5,7.4,6.3,7.4h189.8c10.2,0,12.8-3.2,14.7-11.3l21.2-91.3C1020.6,10.8,1020.7,10.3,1020.6,9.8 M980.7,99.9
	c0,4.2-1.4,6.4-6.4,6.4h-28.5V72.1h-8.2v34.2h-35V78.1c0-4.1-1.9-6-6.1-6h-40.1v7.6h33.8c3.6,0,4.2,0.7,4.2,4.1l0,22.5h-59.4
	c-4.1,0-6.2-1.5-6.2-6V17.4c0-4.1,1.8-6.1,6.2-6.1h59.4v22.6c0,3.2-0.7,4-4,4h-33.8v7.6h39.6c4.9,0,6.4-1.9,6.4-6.4l0-27.8l35,0
	v34.2h8.2V11.4h28.8c4.6,0,6.2,2.3,6.2,6.2V99.9"/>
<path id="path13138" class="st3" d="M923.7,42.6h-8l0,12.4h-13.7v7.5h13.7l0,12.5h8V62.6h13.7V55h-13.7V42.6z"/>
<path class="st3" d="M458,395.5c0-3.5-2.9-6.2-6.2-6.2H259.9c-11.2,0-11.9,7-12.8,10.3l-21.5,92.7c-0.8,4.3,2.5,7.4,6.3,7.4h189.8
	c10.2,0,12.8-3.2,14.7-11.3l21.2-91.3C457.9,396.5,458,396,458,395.5"/>
<rect x="293.2" y="376.3" class="st3" width="48.6" height="60.1"/>
<g>
	<defs>
		<filter id="Adobe_OpacityMaskFilter" filterUnits="userSpaceOnUse" x="696.7" y="151.5" width="89.3" height="126.6">
			<feColorMatrix  type="matrix" values="1 0 0 0 0  0 1 0 0 0  0 0 1 0 0  0 0 0 1 0"/>
		</filter>
	</defs>
	<mask maskUnits="userSpaceOnUse" x="696.7" y="151.5" width="89.3" height="126.6" id="SVGID_1_">
		<g class="st4">
			<path class="st3" d="M774.6,249.7c0,4.2-1.4,6.4-6.4,6.4h-28.5v-34.2h-8.2v34.2h-35v-28.2c0-4.1-1.9-6-6.1-6h-40.1v7.6h33.8
				c3.6,0,4.2,0.7,4.2,4.1l0,22.5h-59.4c-4.1,0-6.2-1.5-6.2-6v-82.8c0-4.1,1.8-6.1,6.2-6.1h59.4v22.6c0,3.2-0.7,4-4,4h-33.8v7.6
				h39.6c4.9,0,6.4-1.9,6.4-6.4l0-27.8l35,0v34.2h8.2v-34.2h28.8c4.6,0,6.2,2.3,6.2,6.2V249.7"/>
		</g>
	</mask>
	<polyline class="st5" points="786,196.9 786,278.1 696.7,278.1 696.7,151.5 786,151.5 786,196.9 	"/>
	<defs>
		
			<filter id="Adobe_OpacityMaskFilter_00000130645000927303008780000007958778128471620737_" filterUnits="userSpaceOnUse" x="608.1" y="139.1" width="89.3" height="126.6">
			<feColorMatrix  type="matrix" values="1 0 0 0 0  0 1 0 0 0  0 0 1 0 0  0 0 0 1 0"/>
		</filter>
	</defs>
	
		<mask maskUnits="userSpaceOnUse" x="608.1" y="139.1" width="89.3" height="126.6" id="SVGID_00000011730283889372167920000015413672443766188452_">
		<g style="filter:url(#Adobe_OpacityMaskFilter_00000130645000927303008780000007958778128471620737_);">
			<path class="st3" d="M619.5,167.6c0-4.2,1.4-6.4,6.4-6.4h28.5v34.2h8.2v-34.2l35,0v28.2c0,4.1,1.9,6,6.1,6l40.1,0v-7.6l-33.8,0
				c-3.6,0-4.2-0.7-4.2-4.1l0-22.5l59.4,0c4.1,0,6.2,1.5,6.2,6V250c0,4.1-1.8,6.1-6.2,6.1l-59.4,0v-22.6c0-3.2,0.7-4,4-4h33.8v-7.6
				l-39.6,0c-4.9,0-6.4,1.9-6.4,6.4l0,27.8l-35,0v-34.2h-8.2v34.2h-28.8c-4.6,0-6.2-2.3-6.2-6.2V167.6"/>
		</g>
	</mask>
	
		<polyline style="mask:url(#SVGID_00000011730283889372167920000015413672443766188452_);fill-rule:evenodd;clip-rule:evenodd;fill:#00ADEF;" points="
		608.1,220.4 608.1,139.1 697.4,139.1 697.4,265.7 608.1,265.7 608.1,220.4 	"/>
</g>
<defs>
	
		<filter id="Adobe_OpacityMaskFilter_00000178918387395278569810000014956442102018760622_" filterUnits="userSpaceOnUse" x="820.3" y="254.8" width="151.9" height="94.9">
		
			<feColorMatrix  type="matrix" values="-1 0 0 0 1  0 -1 0 0 1  0 0 -1 0 1  0 0 0 1 0" color-interpolation-filters="sRGB" result="source"/>
	</filter>
</defs>
<mask maskUnits="userSpaceOnUse" x="820.3" y="254.8" width="151.9" height="94.9" id="SVGID_00000023276863119531582990000004352634457720386997_">
	<g style="filter:url(#Adobe_OpacityMaskFilter_00000178918387395278569810000014956442102018760622_);">
		<rect x="894.1" y="254.8" class="st3" width="78.1" height="94.9"/>
	</g>
</mask>
<path style="mask:url(#SVGID_00000023276863119531582990000004352634457720386997_);fill-rule:evenodd;clip-rule:evenodd;fill:#00ADEF;" d="
	M972.2,343.3c0,4.2-1.4,6.4-6.4,6.4h-24.7c-2.1,0-3.8-1.7-3.8-3.8v-26.6c0-2.1-1.7-3.8-3.8-3.8h-0.5c-2.1,0-3.8,1.7-3.8,3.8v26.6
	c0,2.1-1.7,3.8-3.8,3.8h-27.3c-2.1,0-3.8-1.7-3.8-3.8v-24.4c0-4.1-1.9-6-6.1-6h-36.3c-2.1,0-3.8,1.7-3.8,3.8l0,0
	c0,2.1,1.7,3.8,3.8,3.8h29.9c3.6,0,4.2,0.7,4.2,4.1l0,18.7c0,2.1-1.7,3.8-3.8,3.8h-55.5c-4.1,0-6.2-1.5-6.2-6v-82.8
	c0-4.1,1.8-6.1,6.2-6.1h55.6c2.1,0,3.8,1.7,3.8,3.8v18.8c0,3.2-0.7,4-4,4h-30c-2.1,0-3.8,1.7-3.8,3.8v0c0,2.1,1.7,3.8,3.8,3.8h35.8
	c4.9,0,6.4-1.9,6.4-6.4l0-23.9c0-2.1,1.7-3.8,3.8-3.8l27.3,0c2.1,0,3.8,1.7,3.8,3.8v26.5c0,2.1,1.7,3.8,3.8,3.8h0.5
	c2.1,0,3.8-1.7,3.8-3.8v-26.5c0-2.1,1.7-3.8,3.8-3.8H966c4.6,0,6.2,2.3,6.2,6.2V343.3"/>
<defs>
	
		<filter id="Adobe_OpacityMaskFilter_00000095334791499232232470000000477095248753140125_" filterUnits="userSpaceOnUse" x="891.1" y="220.9" width="16.5" height="26.6">
		
			<feColorMatrix  type="matrix" values="-1 0 0 0 1  0 -1 0 0 1  0 0 -1 0 1  0 0 0 1 0" color-interpolation-filters="sRGB" result="source"/>
	</filter>
</defs>
<mask maskUnits="userSpaceOnUse" x="891.1" y="220.9" width="16.5" height="26.6" id="SVGID_00000148621104583703404570000017793480565698617729_">
	<g style="filter:url(#Adobe_OpacityMaskFilter_00000095334791499232232470000000477095248753140125_);">
		<rect x="915.8" y="152.5" class="st3" width="78.1" height="94.9"/>
	</g>
</mask>
<path style="mask:url(#SVGID_00000148621104583703404570000017793480565698617729_);fill-rule:evenodd;clip-rule:evenodd;fill:#00ADEF;" d="
	M903.4,220.9h-8.2c-2.1,8.6-3.6,17.4-4.1,26.6h12.7c2.1,0,3.8-1.7,3.8-3.8l0-18.7C907.6,221.6,907,220.9,903.4,220.9z"/>
<defs>
	
		<filter id="Adobe_OpacityMaskFilter_00000109729352767409766060000012531756983739447472_" filterUnits="userSpaceOnUse" x="906.7" y="190.2" width="3.2" height="23">
		
			<feColorMatrix  type="matrix" values="-1 0 0 0 1  0 -1 0 0 1  0 0 -1 0 1  0 0 0 1 0" color-interpolation-filters="sRGB" result="source"/>
	</filter>
</defs>
<mask maskUnits="userSpaceOnUse" x="906.7" y="190.2" width="3.2" height="23" id="SVGID_00000112626131484998481320000005975895193694482600_">
	<g style="filter:url(#Adobe_OpacityMaskFilter_00000109729352767409766060000012531756983739447472_);">
		<rect x="915.8" y="152.5" class="st3" width="78.1" height="94.9"/>
	</g>
</mask>
<path style="mask:url(#SVGID_00000112626131484998481320000005975895193694482600_);fill-rule:evenodd;clip-rule:evenodd;fill:#00ADEF;" d="
	M907,209c-0.3,1.3-0.3,2.8-0.1,4.2h2.6c0.3-7.6,0.4-15.4,0.5-23C908.9,196.4,907.5,202.6,907,209z"/>
<defs>
	
		<filter id="Adobe_OpacityMaskFilter_00000083079417892519323680000016549659878544607136_" filterUnits="userSpaceOnUse" x="909.5" y="152.5" width="84.4" height="94.9">
		
			<feColorMatrix  type="matrix" values="-1 0 0 0 1  0 -1 0 0 1  0 0 -1 0 1  0 0 0 1 0" color-interpolation-filters="sRGB" result="source"/>
	</filter>
</defs>
<mask maskUnits="userSpaceOnUse" x="909.5" y="152.5" width="84.4" height="94.9" id="SVGID_00000163061236611114710140000013875518932973762198_">
	<g style="filter:url(#Adobe_OpacityMaskFilter_00000083079417892519323680000016549659878544607136_);">
		<rect x="915.8" y="152.5" class="st3" width="78.1" height="94.9"/>
	</g>
</mask>
<path style="mask:url(#SVGID_00000163061236611114710140000013875518932973762198_);fill-rule:evenodd;clip-rule:evenodd;fill:#00ADEF;" d="
	M987.7,152.5h-24.9c-2.1,0-3.8,1.7-3.8,3.8v26.5c0,2.1-1.7,3.8-3.8,3.8h-0.5c-2.1,0-3.8-1.7-3.8-3.8v-26.5c0-2.1-1.7-3.8-3.8-3.8
	l-27.3,0c-2.1,0-3.8,1.7-3.8,3.8l0,23.9c0,4.1-1.3,6.1-5.3,6.4c-0.2,1.2-0.3,2.4-0.5,3.5c-0.1,7.7-0.2,15.4-0.5,23h0.3
	c4.2,0,6.1,1.9,6.1,6v24.4c0,2.1,1.7,3.8,3.8,3.8H947c2.1,0,3.8-1.7,3.8-3.8v-26.6c0-2.1,1.7-3.8,3.8-3.8h0.5c2.1,0,3.8,1.7,3.8,3.8
	v26.6c0,2.1,1.7,3.8,3.8,3.8h24.7c5,0,6.4-2.2,6.4-6.4v-82.3C993.9,154.8,992.4,152.5,987.7,152.5z"/>
<defs>
	
		<filter id="Adobe_OpacityMaskFilter_00000173840586159382154730000001691757219858970031_" filterUnits="userSpaceOnUse" x="791.5" y="271.7" width="39.1" height="94.9">
		<feColorMatrix  type="matrix" values="1 0 0 0 0  0 1 0 0 0  0 0 1 0 0  0 0 0 1 0"/>
	</filter>
</defs>
<mask maskUnits="userSpaceOnUse" x="791.5" y="271.7" width="39.1" height="94.9" id="SVGID_00000101081032119861236060000013614523343798221967_">
	<g style="filter:url(#Adobe_OpacityMaskFilter_00000173840586159382154730000001691757219858970031_);">
	</g>
</mask>
<path style="mask:url(#SVGID_00000101081032119861236060000013614523343798221967_);fill-rule:evenodd;clip-rule:evenodd;fill:#00ADEF;" d="
	M791.5,332.4L791.5,332.4c2.3,0,4.1,1.8,4.1,4.1v26c0,2.3,1.8,4.1,4.1,4.1h24.4c5,0,6.4-2.2,6.4-6.4v-82.3c0-3.9-1.5-6.1-6-6.2
	c-11.8,12.2-18.9,19-29,29.3v0.7c0,2.3-1.8,4.1-4.1,4.1h0"/>
<path class="st3" d="M908.2,422c-2.3,0-4.1-1.8-4.1-4.1v-0.2c-9.2-8.8-19-18.6-30.7-29.9l-4.3,0l0,27.8l0,39v28.2c0,0,0,0,0,0h35
	c0,0,0,0,0,0v-30.1c0-2.3,1.8-4.1,4.1-4.1"/>
<polygon class="st3" points="841.2,195.2 876,195.2 876,229.9 858.6,212.6 "/>
<defs>
	
		<filter id="Adobe_OpacityMaskFilter_00000080192554453921870240000001775221629167470999_" filterUnits="userSpaceOnUse" x="897.2" y="186.7" width="12.8" height="26.5">
		
			<feColorMatrix  type="matrix" values="-1 0 0 0 1  0 -1 0 0 1  0 0 -1 0 1  0 0 0 1 0" color-interpolation-filters="sRGB" result="source"/>
	</filter>
</defs>
<mask maskUnits="userSpaceOnUse" x="897.2" y="186.7" width="12.8" height="26.5" id="SVGID_00000118385806797484486230000002041213578134277267_">
	<g style="filter:url(#Adobe_OpacityMaskFilter_00000080192554453921870240000001775221629167470999_);">
		<rect x="915.8" y="152.5" class="st3" width="78.1" height="94.9"/>
	</g>
</mask>
<path style="mask:url(#SVGID_00000118385806797484486230000002041213578134277267_);fill-rule:evenodd;clip-rule:evenodd;fill:#00ADEF;" d="
	M909.4,186.7h-4.5c-2.5,8.9-5.3,17.7-7.7,26.5h9.7c-0.2-1.5-0.2-2.9,0.1-4.2c0.5-6.4,1.9-12.6,3-18.8c0-1.2,0-2.3,0-3.5
	C909.8,186.7,909.6,186.7,909.4,186.7z"/>
<defs>
	
		<filter id="Adobe_OpacityMaskFilter_00000140725846124213937600000017484347847381634433_" filterUnits="userSpaceOnUse" x="910" y="186.7" width="0.5" height="3.5">
		
			<feColorMatrix  type="matrix" values="-1 0 0 0 1  0 -1 0 0 1  0 0 -1 0 1  0 0 0 1 0" color-interpolation-filters="sRGB" result="source"/>
	</filter>
</defs>
<mask maskUnits="userSpaceOnUse" x="910" y="186.7" width="0.5" height="3.5" id="SVGID_00000103233779950274681310000012500016485275200943_">
	<g style="filter:url(#Adobe_OpacityMaskFilter_00000140725846124213937600000017484347847381634433_);">
		<rect x="915.8" y="152.5" class="st3" width="78.1" height="94.9"/>
	</g>
</mask>
<path style="mask:url(#SVGID_00000103233779950274681310000012500016485275200943_);fill-rule:evenodd;clip-rule:evenodd;fill:#00ADEF;" d="
	M910,186.7c0,1.2,0,2.3,0,3.5c0.2-1.2,0.4-2.3,0.5-3.5C910.3,186.7,910.2,186.7,910,186.7z"/>
<polygon class="st3" points="800.9,228.6 800.9,193.8 835.7,193.8 818.3,211.2 "/>
<path class="st3" d="M685.7,338.8h4.1V373h28.5c5,0,6.4-2.2,6.4-6.4v-82.3c0-3.9-1.5-6.1-6-6.2c-11.8,12.2-18.9,19-29,29.3v4.8h-4.1
	"/>
<path class="st3" d="M916.2,415c2.3,0,4.1-1.8,4.1-4.1v-0.2c9.2-8.8,19-18.6,30.7-29.9l4.3,0l0,27.8l0,39v28.2c0,0,0,0,0,0h-35
	c0,0,0,0,0,0v-30.1c0-2.3-1.8-4.1-4.1-4.1"/>
<rect id="rect34539_00000090283940851058157880000013864312930258894492_" x="665.2" y="143.4" class="st0" width="169.3" height="102"/>
<path id="path13136_00000088819649059404331940000008096225359720388224_" class="st3" d="M866.5,144.9c0-3.5-2.9-6.2-6.2-6.2H668.5
	c-11.2,0-11.9,7-12.8,10.3l-21.5,92.7c-0.8,4.3,2.5,7.4,6.3,7.4h189.8c10.2,0,12.8-3.2,14.7-11.3l21.2-91.3
	C866.5,146,866.5,145.4,866.5,144.9 M826.6,235c0,4.2-1.4,6.4-6.4,6.4h-28.5v-34.2h-8.2v34.2h-35v-28.2c0-4.1-1.9-6-6.1-6h-40.1v7.6
	h33.8c3.6,0,4.2,0.7,4.2,4.1l0,22.5H681c-4.1,0-6.2-1.5-6.2-6v-82.8c0-4.1,1.8-6.1,6.2-6.1h59.4v22.6c0,3.2-0.7,4-4,4h-33.8v7.6
	h39.6c4.9,0,6.4-1.9,6.4-6.4l0-27.8l35,0v34.2h8.2v-34.2h28.8c4.6,0,6.2,2.3,6.2,6.2V235"/>
<path id="path13136_00000029007245282104513540000006362747243955702163_" class="st3" d="M1318.8,177.4c0-3.5-2.9-6.2-6.2-6.2
	h-191.9c-11.2,0-11.9,7-12.8,10.3l-21.5,92.7c-0.8,4.3,2.5,7.4,6.3,7.4h189.8c10.2,0,12.8-3.2,14.7-11.3l21.2-91.3
	C1318.8,178.4,1318.8,177.9,1318.8,177.4 M1278.9,267.4c0,4.2-1.4,6.4-6.4,6.4h-28.5v-34.2h-8.2v34.2h-35v-28.2c0-4.1-1.9-6-6.1-6
	h-40.1v7.6h33.8c3.6,0,4.2,0.7,4.2,4.1l0,22.5h-59.4c-4.1,0-6.2-1.5-6.2-6V185c0-4.1,1.8-6.1,6.2-6.1h59.4v22.6c0,3.2-0.7,4-4,4
	h-33.8v7.6h39.6c4.9,0,6.4-1.9,6.4-6.4l0-27.8l35,0v34.2h8.2v-34.2h28.8c4.6,0,6.2,2.3,6.2,6.2V267.4"/>
<path id="path13138_00000030446526290209188100000008746452659548353194_" class="st3" d="M769.6,161.4h-8l0,12.4h-13.7v7.5h13.7
	l0,12.5h8v-12.5h13.7v-7.5h-13.7V161.4z"/>
<g>
	<path class="st3" d="M936.2,551c0-3.5-2.9-6.2-6.2-6.2H738.2c-11.2,0-11.9,7-12.8,10.3l-21.5,92.7c-0.8,4.3,2.5,7.4,6.3,7.4h189.8
		c10.2,0,12.8-3.2,14.7-11.3l21.2-91.3C936.2,552,936.2,551.5,936.2,551"/>
	<path class="st0" d="M818.1,649.9c-10.8,0-21.4-0.1-32,0c-2.3,0-2.9-0.7-2.9-3c0.1-10,0-19.9,0.1-29.9c0-2.3-0.5-3.2-3-3.1
		c-6.1,0.3-5.3-0.8-5.3,5.2c0,9.3-0.1,18.5,0,27.8c0,2.3-0.7,3-3,2.9c-10.4-0.1-20.8-0.1-31.2,0c-2.2,0-2.8-0.7-2.8-2.8
		c0-31.3,0-62.7,0.1-94c0-0.9,0.5-2.7,0.8-2.7c1.5,0,3.4-0.1,4.6,0.7c2.2,1.6,4.1,3.7,6.1,5.7c7.8,7.6,15.7,15.2,23.4,22.9
		c1,1,1.7,2.7,1.9,4.2c0.3,1.4,0.6,2.2,2.2,2.1c1.9-0.1,3.8,0,6.1,0c-1-5,2.9-6.9,5.5-9.6c8.3-8.2,16.7-16.4,25.1-24.5
		c1-1,2.8-1.5,4.3-1.8c4.5-0.9,7.8,1,11.1,4.3c8.2,8.5,16.9,16.6,25.4,24.9c1.4,1.3,2.5,2.6,2.3,4.6c-0.2,1.4,0.6,2,2,1.9
		c0.9-0.1,1.9-0.1,2.9,0c2.4,0.3,3.5-0.5,3.4-3.1c0-0.9,0.6-2,1.3-2.6c9.8-9.7,19.6-19.3,29.6-28.8c1-1,3.1-0.9,4.7-1.2
		c0.3,0,0.9,0.7,1,1.2c0.2,0.8,0.1,1.7,0.1,2.6c0,30.7,0,61.3,0,92c0,3.9,0,3.9-3.8,3.9c-10,0-20.1-0.1-30.1,0.1c-2.3,0-3-0.8-3-3
		c0.1-9.9,0-19.7,0.1-29.6c0-2.6-0.7-3.5-3.4-3.4c-5.2,0.3-4.9-0.7-4.9,4.9c0,9.3-0.1,18.5,0,27.8c0,2.4-0.7,3.3-3.2,3.2
		C841.9,649.9,830.1,649.9,818.1,649.9z"/>
	<rect x="816" y="544.8" class="st3" width="8" height="110.4"/>
	<path id="path13138_00000107566701177829949720000002000647601061408177_" class="st3" d="M845.6,583.8h-8l0,12.4H824v7.5h13.7
		l0,12.5h8v-12.5h13.7v-7.5h-13.7V583.8z"/>
</g>
<g>
	<path class="st3" d="M839.7,685.9c0-3.5-1.9-6.2-4-6.2H711.9c-7.2,0-7.6,7-8.2,10.3l-13.9,92.7c-0.5,4.3,1.6,7.4,4.1,7.4h122.5
		c6.6,0,8.3-3.2,9.5-11.3l13.7-91.3C839.6,686.9,839.7,686.4,839.7,685.9"/>
	<path class="st0" d="M763.4,784.8c-7,0-13.8-0.1-20.6,0c-1.5,0-1.9-0.7-1.9-3c0.1-10,0-19.9,0.1-29.9c0-2.3-0.3-3.2-1.9-3.1
		c-3.9,0.3-3.4-0.8-3.4,5.2c0,9.3-0.1,18.5,0,27.8c0,2.3-0.4,3-1.9,2.9c-6.7-0.1-13.4-0.1-20.1,0c-1.4,0-1.8-0.7-1.8-2.8
		c0-31.3,0-62.7,0-94c0-0.9,0.3-2.7,0.5-2.7c1,0,2.2-0.1,3,0.7c1.4,1.6,2.6,3.7,3.9,5.7c5,7.6,10.1,15.2,15.1,22.9
		c0.7,1,1.1,2.7,1.2,4.2c0.2,1.4,0.4,2.2,1.4,2.1c1.2-0.1,2.4,0,3.9,0c-0.6-5,1.9-6.9,3.6-9.6c5.4-8.2,10.8-16.4,16.2-24.5
		c0.7-1,1.8-1.5,2.8-1.8c2.9-0.9,5.1,1,7.1,4.3c5.3,8.5,10.9,16.6,16.4,24.9c0.9,1.3,1.6,2.6,1.5,4.6c-0.1,1.4,0.4,2,1.3,1.9
		c0.6-0.1,1.2-0.1,1.8,0c1.6,0.3,2.3-0.5,2.2-3.1c0-0.9,0.4-2,0.9-2.6c6.3-9.7,12.7-19.3,19.1-28.8c0.7-1,2-0.9,3-1.2
		c0.2,0,0.6,0.7,0.6,1.2c0.1,0.8,0.1,1.7,0.1,2.6c0,30.7,0,61.3,0,92c0,3.9,0,3.9-2.4,3.9c-6.5,0-13-0.1-19.4,0.1
		c-1.5,0-1.9-0.8-1.9-3c0.1-9.9,0-19.7,0-29.6c0-2.6-0.5-3.5-2.2-3.4c-3.4,0.3-3.1-0.7-3.2,4.9c0,9.3,0,18.5,0,27.8
		c0,2.4-0.4,3.3-2.1,3.2C778.8,784.8,771.2,784.8,763.4,784.8z"/>
	<rect x="759.7" y="679.7" class="st3" width="10" height="110.4"/>
	<path id="path13138_00000181051660217432680830000004817479347466371726_" class="st3" d="M782,714.6h-6.8l0,16.3h-11.6v9.9h11.6
		l0,16.4h6.8v-16.4h11.6v-9.9H782V714.6z"/>
</g>
</svg>
